<?xml version="1.0" encoding="UTF-8"?>
<svg id="Layer_1" xmlns="http://www.w3.org/2000/svg" version="1.1" viewBox="0 0 512 512">
  <!-- Generator: Adobe Illustrator 30.0.0, SVG Export Plug-In . SVG Version: 2.1.1 Build 123)  -->
  <defs>
    <style>
      .st0 {
        fill: #ccc;
      }
    </style>
  </defs>
  <path class="st0" d="M79.4-.4c.9,0,1.9,0,2.9,0,3.2,0,6.4,0,9.5,0,2.3,0,4.6,0,6.8,0,6.2,0,12.4,0,18.6,0,6.5,0,12.9,0,19.4,0,10.8,0,21.7,0,32.5,0,11.2,0,22.3,0,33.5,0,.7,0,1.4,0,2.1,0,3.5,0,6.9,0,10.4,0C243.7-.1,272.3,0,301,0q0,1,0,2.1c0,16.8.2,33.6.3,50.4,0,8.1,0,16.2.1,24.4,0,7.1,0,14.2.1,21.2,0,3.7,0,7.5,0,11.2,0,4.2,0,8.4,0,12.6,0,1.2,0,2.5,0,3.7q0,10.3,4.5,19.3c6.8,5.3,14.8,4.5,23,4.5q2,0,4,0c3.6,0,7.2,0,10.8,0,3.8,0,7.5,0,11.3,0,7.1,0,14.2,0,21.4.1,8.1,0,16.2,0,24.3.1,16.7.1,33.4.2,50,.3,0,44.9.2,89.7.2,134.6,0,5.3,0,10.6,0,15.9,0,1.1,0,2.1,0,3.2,0,17.1,0,34.2,0,51.2,0,17.5,0,35,0,52.6,0,10.8,0,21.6,0,32.4,0,7.4,0,14.8,0,22.2,0,4.3,0,8.6,0,12.8,0,3.9,0,7.8,0,11.7,0,1.4,0,2.8,0,4.3q0,11.9-2.2,15.7c-3.2,3.2-5.7,5.1-10.3,5.7q-1.7,0-3.4,0c-1.3,0-2.6,0-3.9,0-1.4,0-2.9,0-4.3,0-1.5,0-3.1,0-4.6,0-4.2,0-8.4,0-12.7,0-4.5,0-9.1,0-13.6,0-8.9,0-17.8,0-26.7,0-7.2,0-14.5,0-21.7,0-1,0-2.1,0-3.1,0-2.1,0-4.2,0-6.3,0-19.6,0-39.3,0-58.9,0-18,0-35.9,0-53.9,0-18.4,0-36.9,0-55.3,0-10.4,0-20.7,0-31.1,0-8.8,0-17.6,0-26.4,0-4.5,0-9,0-13.5,0-4.1,0-8.2,0-12.4,0-1.5,0-3,0-4.5,0-2,0-4,0-6.1,0-1.1,0-2.3,0-3.4,0-4.9-.8-7.9-3-11-6.7-1.5-3.7-1.6-7.1-1.5-11.1q0-1.3,0-2.5c0-2.8,0-5.6,0-8.5,0-2,0-4.1,0-6.1,0-5.6,0-11.2,0-16.8,0-6,0-12.1,0-18.1,0-11.2,0-22.3,0-33.5,0-10.3,0-20.6,0-30.9,0-1.4,0-2.8,0-4.1,0-2.1,0-4.2,0-6.2,0-19.4,0-38.7,0-58.1,0-.7,0-1.5,0-2.2,0-5.9,0-11.9,0-17.8,0-23.1,0-46.3,0-69.4,0-26,0-52,0-78,0-2.8,0-5.5,0-8.3,0-.7,0-1.4,0-2.1,0-10.3,0-20.6,0-30.9,0-11.7,0-23.4,0-35.2,0-6,0-12,0-17.9,0-5.5,0-10.9,0-16.4,0-2,0-4,0-5.9,0-2.7,0-5.4,0-8.1,0-.8,0-1.6,0-2.3,0-5.2,1.3-8.1,4.5-12.1,4.4-3.8,8.9-3.4,14.4-3.4ZM109,76c-2.7,4.5-2.7,8.9-2,14,2.2,4.5,4.5,6.9,9,9,3.4.8,6.6,1.1,10.1,1.1,1,0,2,0,3,0,1.1,0,2.2,0,3.3,0,1.2,0,2.3,0,3.5,0,3.8,0,7.7,0,11.5,0,2,0,4,0,6,0,6.3,0,12.5,0,18.8,0,6.5,0,12.9,0,19.4,0,5.5,0,11.1,0,16.6,0,3.3,0,6.6,0,9.9,0,3.7,0,7.4,0,11.1,0q1.6,0,3.3,0,9.9,0,18.2-4.7c3.9-4.6,4.6-7.2,4.5-13.1-.5-3.7-1.8-5.8-4.3-8.5-4.7-3.5-9.3-4.1-15.1-4.1-1,0-2,0-3,0-1.1,0-2.2,0-3.3,0-1.2,0-2.3,0-3.5,0-3.8,0-7.7,0-11.5,0-2,0-4,0-6,0-6.3,0-12.5,0-18.8,0-6.5,0-12.9,0-19.4,0-5.5,0-11.1,0-16.6,0-3.3,0-6.6,0-9.9,0-3.7,0-7.4,0-11.1,0-1.1,0-2.2,0-3.3,0-8,0-14.4.4-20.4,6.3ZM109,136c-2.7,4.5-2.7,8.9-2,14,2.2,4.5,4.5,6.9,9,9,3.4.8,6.6,1.1,10.1,1.1,1,0,2,0,3,0,1.1,0,2.2,0,3.3,0,1.2,0,2.3,0,3.5,0,3.8,0,7.7,0,11.5,0,2,0,4,0,6,0,6.3,0,12.5,0,18.8,0,6.5,0,12.9,0,19.4,0,5.5,0,11.1,0,16.6,0,3.3,0,6.6,0,9.9,0,3.7,0,7.4,0,11.1,0q1.6,0,3.3,0,9.9,0,18.2-4.7c3.9-4.6,4.6-7.2,4.5-13.1-.5-3.7-1.8-5.8-4.3-8.5-4.7-3.5-9.3-4.1-15.1-4.1-1,0-2,0-3,0-1.1,0-2.2,0-3.3,0-1.2,0-2.3,0-3.5,0-3.8,0-7.7,0-11.5,0-2,0-4,0-6,0-6.3,0-12.5,0-18.8,0-6.5,0-12.9,0-19.4,0-5.5,0-11.1,0-16.6,0-3.3,0-6.6,0-9.9,0-3.7,0-7.4,0-11.1,0-1.1,0-2.2,0-3.3,0-8,0-14.4.4-20.4,6.3ZM186,262.7c-17,20-26.2,44.4-24.8,70.9,2,24.7,13.9,49.3,32.8,65.4,11.4,9.1,27.9,20.8,43.2,20.1,4.8-1.3,7.6-3.3,10.8-7.1,2.3-4.6,2.2-8,1-13-3.7-6.9-8.4-8.9-15.6-11.2-16.5-5.8-28.6-17-36.4-32.8-7.6-18-7.5-36.4-.5-54.7,7.5-16.9,20.1-27.5,36.6-34.7,17.4-6.1,37.3-4.1,53.7,3.7,17.1,9.5,27.6,25.3,33.2,43.6-.5-.4-1-.9-1.5-1.4-1.4-1.3-2.9-2.5-4.3-3.8-1.3-1.1-2.5-2.3-3.7-3.4-3.2-3.1-6-4.4-10.3-4.7-4.8.5-8.8,2.8-12,6.3-2.2,4.1-2.9,8.4-2.1,12.9,3.2,5.5,7.4,9.7,11.9,14.2q1.1,1.1,2.3,2.3c1.6,1.6,3.2,3.2,4.8,4.8,2.5,2.5,4.9,4.9,7.4,7.4,1.6,1.6,3.1,3.1,4.7,4.7q1.1,1.1,2.2,2.2c.7.7,1.4,1.4,2.1,2.1.6.6,1.2,1.2,1.8,1.8,3.7,3.1,6.7,3.8,11.5,4,7.2-1.5,12.3-7,17.3-12,.7-.7,1.5-1.5,2.2-2.2,1.6-1.5,3.1-3.1,4.6-4.6,2.4-2.4,4.7-4.7,7.1-7.1,1.5-1.5,3-3,4.5-4.5.7-.7,1.4-1.4,2.1-2.1,4.4-4.5,7.8-8.6,8.6-15.1-.7-5.6-3.1-9.1-7.3-12.8-3.7-2.3-6.8-2.2-11-1.5-5.5,1.5-9.1,5.6-13,9.5-.2-.6-.3-1.1-.5-1.7-5.4-17.7-12-32.5-24.5-46.3-.5-.6-1.1-1.2-1.6-1.9-16.9-18.3-41.1-26.2-65.4-28.1-27.1-1-53.6,11.2-72,30.7Z"/>
  <path class="st0" d="M331,8c4.1,3.5,8,6.9,11.8,10.7.9.9,1.8,1.8,2.7,2.7,1,1,1.9,1.9,2.9,2.9,1,1,2.1,2.1,3.1,3.1,2.8,2.8,5.6,5.6,8.4,8.4,2.9,2.9,5.8,5.8,8.8,8.8,4.9,4.9,9.8,9.8,14.7,14.7,5.7,5.7,11.3,11.3,17,17,4.9,4.9,9.8,9.7,14.6,14.6,2.9,2.9,5.8,5.8,8.7,8.7,2.7,2.7,5.5,5.5,8.2,8.2,1,1,2,2,3,3,1.4,1.4,2.7,2.7,4.1,4.1.8.8,1.5,1.5,2.3,2.3q1.6,1.7,1.6,2.7h-112V8Z"/>
</svg>